<?xml version="1.0" encoding="utf-8"?>
<!-- Generator: Adobe Illustrator 17.0.0, SVG Export Plug-In . SVG Version: 6.00 Build 0)  -->
<!DOCTYPE svg PUBLIC "-//W3C//DTD SVG 1.1//EN" "http://www.w3.org/Graphics/SVG/1.1/DTD/svg11.dtd">
<svg version="1.1" id="Layer_1" xmlns="http://www.w3.org/2000/svg" xmlns:xlink="http://www.w3.org/1999/xlink" x="0px" y="0px"
	 width="198px" height="48px" viewBox="0 0 198 48" enable-background="new 0 0 198 48" xml:space="preserve">
<g>
	<path fill="#FFFFFF" d="M47.808,21.07c-0.539,0.377-1.294,0.863-2.238,1.267v-1.82c0.634-0.351,1.887-1.024,2.683-1.968h1.496
		v10.137h-1.941V21.07z"/>
	<path fill="#FFFFFF" d="M57.726,18.549c3.235,0,3.303,3.639,3.303,5.149c0,2.251-0.539,5.149-3.303,5.149
		c-2.764,0-3.303-2.898-3.303-5.149C54.423,22.188,54.49,18.549,57.726,18.549z M57.726,20.275c-1.2,0-1.281,1.671-1.281,3.424
		c0,2.022,0.256,3.424,1.281,3.424c1.024,0,1.28-1.402,1.28-3.424C59.006,21.946,58.925,20.275,57.726,20.275z"/>
	<path fill="#FFFFFF" d="M69.908,18.549h2.413l-3.491,4.866l3.559,5.271h-2.521l-3.208-4.974h-0.027v4.974h-2.022V18.549h2.022
		v4.758h0.027L69.908,18.549z"/>
	<path fill="#FFFFFF" d="M81.495,18.549h2.022v10.137h-2.022V18.549z"/>
	<path fill="#FFFFFF" d="M92.789,21.218c0-0.701-0.674-1.132-1.483-1.132c-1.011,0-1.618,0.445-1.618,1.119
		c0,0.701,0.674,1.038,1.172,1.2l1.86,0.593c1.348,0.431,2.305,1.213,2.305,2.777c0,1.24-0.89,3.1-3.694,3.1
		c-3.518,0-3.842-2.278-3.842-3.181l2.022-0.041c0,1.079,0.849,1.496,1.833,1.496c0.687,0,1.658-0.337,1.658-1.119
		c0-0.539-0.229-0.822-1.227-1.186l-2.211-0.795c-1.119-0.405-1.901-1.389-1.901-2.534c0-1.294,0.89-3.154,3.518-3.154
		c3.127,0,3.626,2.076,3.626,2.817L92.789,21.218z"/>
	<path fill="#FFFFFF" d="M98.891,18.549h2.022v8.25h3.895v1.887h-5.917V18.549z"/>
	<path fill="#FFFFFF" d="M113.972,26.57h-3.707l-0.66,2.116h-2.184l3.694-10.137h2.13l3.639,10.137h-2.224L113.972,26.57z
		 M112.139,20.989h-0.027l-1.281,3.936h2.602L112.139,20.989z"/>
	<path fill="#FFFFFF" d="M122.123,21.771h-0.027v6.915h-1.941V18.549h2.171l4.111,6.808h0.027v-6.808h1.941v10.137h-2.089
		L122.123,21.771z"/>
	<path fill="#FFFFFF" d="M132.659,18.549h3.815c3.073,0,4.88,1.806,4.88,5.068c0,3.235-2.237,5.068-4.826,5.068h-3.869V18.549z
		 M136.394,26.961c2.076,0,2.857-1.78,2.857-3.357c0-1.698-0.728-3.329-3.019-3.329h-1.55v6.686H136.394z"/>
	<path fill="#FFFFFF" d="M150.072,21.218c0-0.701-0.674-1.132-1.483-1.132c-1.011,0-1.618,0.445-1.618,1.119
		c0,0.701,0.674,1.038,1.173,1.2l1.86,0.593c1.348,0.431,2.305,1.213,2.305,2.777c0,1.24-0.889,3.1-3.694,3.1
		c-3.518,0-3.842-2.278-3.842-3.181l2.022-0.041c0,1.079,0.849,1.496,1.833,1.496c0.688,0,1.659-0.337,1.659-1.119
		c0-0.539-0.229-0.822-1.227-1.186l-2.211-0.795c-1.119-0.405-1.901-1.389-1.901-2.534c0-1.294,0.889-3.154,3.518-3.154
		c3.128,0,3.627,2.076,3.627,2.817L150.072,21.218z"/>
</g>
</svg>
